<svg width="24" height="24" viewBox="0 0 24 24" fill="none" xmlns="http://www.w3.org/2000/svg">
<path d="M3 12.003C3 8.97676 4.47223 6.27767 6.84416 4.64186C7.66206 4.06933 9.05251 3.90575 9.54325 4.64186C10.3612 5.62335 8.88892 7.09558 9.54325 7.91349C11.1791 9.87646 14.5325 6.0323 18.5402 7.91349C21.4029 9.38572 20.9939 13.0663 20.6668 14.4567C19.6035 18.2191 16.0865 21 11.997 21C7.00774 21 3 16.9922 3 12.003Z" stroke="#1A1A1A" stroke-miterlimit="10" stroke-linecap="round" stroke-linejoin="round"/>
<path d="M16.0865 13.6386C16.9899 13.6386 17.7223 12.9062 17.7223 12.0028C17.7223 11.0994 16.9899 10.367 16.0865 10.367C15.1831 10.367 14.4507 11.0994 14.4507 12.0028C14.4507 12.9062 15.1831 13.6386 16.0865 13.6386Z" stroke="#1A1A1A" stroke-miterlimit="10" stroke-linecap="round" stroke-linejoin="round"/>
<path d="M6.27152 12.8208C6.72324 12.8208 7.08943 12.4546 7.08943 12.0029C7.08943 11.5512 6.72324 11.185 6.27152 11.185C5.8198 11.185 5.45361 11.5512 5.45361 12.0029C5.45361 12.4546 5.8198 12.8208 6.27152 12.8208Z" stroke="#1A1A1A" stroke-miterlimit="10" stroke-linecap="round" stroke-linejoin="round"/>
<path d="M8.31644 16.9104C8.76816 16.9104 9.13435 16.5442 9.13435 16.0925C9.13435 15.6408 8.76816 15.2746 8.31644 15.2746C7.86472 15.2746 7.49854 15.6408 7.49854 16.0925C7.49854 16.5442 7.86472 16.9104 8.31644 16.9104Z" stroke="#1A1A1A" stroke-miterlimit="10" stroke-linecap="round" stroke-linejoin="round"/>
<path d="M12.815 18.5461C13.2667 18.5461 13.6329 18.1799 13.6329 17.7282C13.6329 17.2765 13.2667 16.9103 12.815 16.9103C12.3633 16.9103 11.9971 17.2765 11.9971 17.7282C11.9971 18.1799 12.3633 18.5461 12.815 18.5461Z" stroke="#1A1A1A" stroke-miterlimit="10" stroke-linecap="round" stroke-linejoin="round"/>
</svg>